<?xml version="1.0" encoding="UTF-8"?>
<svg width="300px" height="300px" viewBox="0 0 300 300" version="1.1" xmlns="http://www.w3.org/2000/svg" xmlns:xlink="http://www.w3.org/1999/xlink">
    <title>Custom Preset</title>
    <defs>
        <linearGradient x1="50%" y1="0%" x2="50%" y2="100%" id="linearGradient-1">
            <stop stop-color="#06B6D4" offset="0%"></stop>
            <stop stop-color="#FFFFFF" offset="100%"></stop>
        </linearGradient>
        <linearGradient x1="50%" y1="0%" x2="50%" y2="100%" id="linearGradient-2">
            <stop stop-color="#06B6D4" offset="0%"></stop>
            <stop stop-color="#FFFFFF" offset="100%"></stop>
        </linearGradient>
    </defs>
    <g id="Custom-Preset" stroke="none" stroke-width="1" fill="none" fill-rule="evenodd">
        <g id="noun-braille-p-214493" transform="translate(171.000000, 70.000000)" fill="url(#linearGradient-1)" fill-rule="nonzero">
            <path d="M16.0981595,0 C20.4171779,0 24.3435583,1.57055215 27.4846626,4.71165644 C30.6257669,7.85276074 32.196319,11.5828221 32.196319,16.0981595 C32.196319,20.6134969 30.6257669,24.3435583 27.4846626,27.4846626 C24.3435583,30.6257669 20.6134969,32.196319 16.0981595,32.196319 C11.5828221,32.196319 7.85276074,30.6257669 4.71165644,27.4846626 C1.57055215,24.3435583 0,20.6134969 0,16.0981595 C0,11.7791411 1.57055215,7.85276074 4.71165644,4.71165644 C7.85276074,1.57055215 11.5828221,0 16.0981595,0 Z M16.0981595,63.803681 C20.4171779,63.803681 24.3435583,65.3742331 27.4846626,68.5153374 C30.6257669,71.6564417 32.196319,75.3865031 32.196319,79.9018405 C32.196319,84.4171779 30.6257669,88.1472393 27.4846626,91.2883436 C24.3435583,94.4294479 20.6134969,96 16.0981595,96 C11.5828221,96 7.85276074,94.4294479 4.71165644,91.2883436 C1.57055215,88.1472393 0,84.4171779 0,79.9018405 C0,75.3865031 1.57055215,71.6564417 4.71165644,68.5153374 C7.85276074,65.3742331 11.5828221,63.803681 16.0981595,63.803681 Z M16.0981595,127.803681 C20.4171779,127.803681 24.3435583,129.374233 27.4846626,132.515337 C30.6257669,135.656442 32.196319,139.386503 32.196319,143.90184 C32.196319,148.417178 30.6257669,152.147239 27.4846626,155.288344 C24.3435583,158.429448 20.6134969,160 16.0981595,160 C11.5828221,160 7.85276074,158.429448 4.71165644,155.288344 C1.57055215,152.147239 0,148.417178 0,143.90184 C0,139.386503 1.57055215,135.656442 4.71165644,132.515337 C7.85276074,129.374233 11.5828221,127.803681 16.0981595,127.803681 Z M79.9018405,0 C84.2208589,0 88.1472393,1.57055215 91.2883436,4.71165644 C94.4294479,7.85276074 96,11.5828221 96,16.0981595 C96,20.6134969 94.4294479,24.3435583 91.2883436,27.4846626 C88.1472393,30.6257669 84.4171779,32.196319 79.9018405,32.196319 C75.5828221,32.196319 71.6564417,30.6257669 68.5153374,27.4846626 C65.3742331,24.3435583 63.803681,20.6134969 63.803681,16.0981595 C63.803681,11.7791411 65.3742331,7.85276074 68.5153374,4.71165644 C71.8527607,1.57055215 75.5828221,0 79.9018405,0 Z M79.9018405,75.9754601 C82.6503067,75.9754601 84.0245399,77.3496933 84.0245399,79.9018405 C84.0245399,82.4539877 82.6503067,83.8282209 79.9018405,83.8282209 C77.1533742,83.8282209 75.9754601,82.4539877 75.9754601,79.9018405 C75.9754601,77.3496933 77.3496933,75.9754601 79.9018405,75.9754601 Z M79.9018405,139.779141 C82.6503067,139.779141 84.0245399,141.153374 84.0245399,143.90184 C84.0245399,146.650307 82.6503067,147.828221 79.9018405,147.828221 C77.1533742,147.828221 75.9754601,146.453988 75.9754601,143.90184 C75.9754601,141.153374 77.3496933,139.779141 79.9018405,139.779141 Z" id="Shape"></path>
        </g>
        <g id="noun-morse-code-b-2553657" transform="translate(34.000000, 70.000000)" fill="url(#linearGradient-2)" fill-rule="nonzero">
            <path d="M96.6923077,147.692308 C98.3491619,147.692308 99.6923077,149.035453 99.6923077,150.692308 L99.6923077,157 C99.6923077,158.656854 98.3491619,160 96.6923077,160 L3,160 C1.34314575,160 2.02906125e-16,158.656854 0,157 L0,150.692308 C-2.02906125e-16,149.035453 1.34314575,147.692308 3,147.692308 L96.6923077,147.692308 Z M25.3076923,124.307692 C26.9645466,124.307692 28.3076923,125.650838 28.3076923,127.307692 L28.3076923,133.615385 C28.3076923,135.272239 26.9645466,136.615385 25.3076923,136.615385 L3,136.615385 C1.34314575,136.615385 2.02906125e-16,135.272239 0,133.615385 L0,127.307692 C-2.02906125e-16,125.650838 1.34314575,124.307692 3,124.307692 L25.3076923,124.307692 Z M113.923077,110.769231 C115.579931,110.769231 116.923077,112.112377 116.923077,113.769231 L116.923077,120.076923 C116.923077,121.733777 115.579931,123.076923 113.923077,123.076923 L91.6153846,123.076923 C89.9585304,123.076923 88.6153846,121.733777 88.6153846,120.076923 L88.6153846,113.769231 C88.6153846,112.112377 89.9585304,110.769231 91.6153846,110.769231 L113.923077,110.769231 Z M25.3076923,96 C26.9645466,96 28.3076923,97.3431458 28.3076923,99 L28.3076923,105.307692 C28.3076923,106.964547 26.9645466,108.307692 25.3076923,108.307692 L3,108.307692 C1.34314575,108.307692 2.02906125e-16,106.964547 0,105.307692 L0,99 C-2.02906125e-16,97.3431458 1.34314575,96 3,96 L25.3076923,96 Z M100.384615,71.3846154 C102.04147,71.3846154 103.384615,72.7277611 103.384615,74.3846154 L103.384615,80.6923077 C103.384615,82.3491619 102.04147,83.6923077 100.384615,83.6923077 L3,83.6923077 C1.34314575,83.6923077 2.02906125e-16,82.3491619 0,80.6923077 L0,74.3846154 C-2.02906125e-16,72.7277611 1.34314575,71.3846154 3,71.3846154 L100.384615,71.3846154 Z M25.3076923,49.2307692 C26.9645466,49.2307692 28.3076923,50.573915 28.3076923,52.2307692 L28.3076923,58.5384615 C28.3076923,60.1953158 26.9645466,61.5384615 25.3076923,61.5384615 L3,61.5384615 C1.34314575,61.5384615 9.3869722e-16,60.1953158 0,58.5384615 L0,52.2307692 C-2.02906125e-16,50.573915 1.34314575,49.2307692 3,49.2307692 L25.3076923,49.2307692 Z M109,36.9230769 C110.656854,36.9230769 112,38.2662227 112,39.9230769 L112,46.2307692 C112,47.8876235 110.656854,49.2307692 109,49.2307692 L86.6923077,49.2307692 C85.0354534,49.2307692 83.6923077,47.8876235 83.6923077,46.2307692 L83.6923077,39.9230769 C83.6923077,38.2662227 85.0354534,36.9230769 86.6923077,36.9230769 L109,36.9230769 Z M25.3076923,20.9230769 C26.9645466,20.9230769 28.3076923,22.2662227 28.3076923,23.9230769 L28.3076923,30.2307692 C28.3076923,31.8876235 26.9645466,33.2307692 25.3076923,33.2307692 L3,33.2307692 C1.34314575,33.2307692 6.46995335e-16,31.8876235 0,30.2307692 L0,23.9230769 C2.41183085e-16,22.2662227 1.34314575,20.9230769 3,20.9230769 L25.3076923,20.9230769 Z M96.6923077,0 C98.3491619,-3.04359188e-16 99.6923077,1.34314575 99.6923077,3 L99.6923077,10.5384615 C99.6923077,12.1953158 98.3491619,13.5384615 96.6923077,13.5384615 L3,13.5384615 C1.34314575,13.5384615 4.9460801e-16,12.1953158 0,10.5384615 L0,3 C-6.46995335e-16,1.34314575 1.34314575,3.04359188e-16 3,0 L96.6923077,0 Z" id="Shape"></path>
        </g>
    </g>
</svg>